<?xml version="1.0" encoding="UTF-8" standalone="no"?>
<!-- Created with Inkscape (http://www.inkscape.org/) -->

<svg
   width="210mm"
   height="297mm"
   viewBox="0 0 210 297"
   version="1.1"
   id="svg1"
   inkscape:export-filename="logo.png"
   inkscape:export-xdpi="96"
   inkscape:export-ydpi="96"
   inkscape:version="1.3.2 (091e20e, 2023-11-25)"
   sodipodi:docname="logo.svg"
   xmlns:inkscape="http://www.inkscape.org/namespaces/inkscape"
   xmlns:sodipodi="http://sodipodi.sourceforge.net/DTD/sodipodi-0.dtd"
   xmlns="http://www.w3.org/2000/svg"
   xmlns:svg="http://www.w3.org/2000/svg">
  <sodipodi:namedview
     id="namedview1"
     pagecolor="#ffffff"
     bordercolor="#000000"
     borderopacity="0.25"
     inkscape:showpageshadow="2"
     inkscape:pageopacity="0.0"
     inkscape:pagecheckerboard="0"
     inkscape:deskcolor="#d1d1d1"
     inkscape:document-units="mm"
     inkscape:zoom="0.76099206"
     inkscape:cx="341.65928"
     inkscape:cy="425.10299"
     inkscape:window-width="1920"
     inkscape:window-height="1011"
     inkscape:window-x="0"
     inkscape:window-y="0"
     inkscape:window-maximized="1"
     inkscape:current-layer="layer1" />
  <defs
     id="defs1" />
  <g
     inkscape:label="Layer 1"
     inkscape:groupmode="layer"
     id="layer1">
    <path
       style="fill:#00eeee;fill-opacity:1;stroke-width:0.304749"
       id="path1"
       d="m 73.317154,173.04588 c -28.21811,2.2826 54.624896,-36.39989 28.469156,-31.59463 -7.823231,1.43727 -15.320769,3.12611 -22.981156,4.68917 -15.687789,3.98225 -22.200058,5.2842 -35.758128,9.9682 -4.013569,1.38659 -7.869679,2.85413 -11.286359,4.45235 -4.309518,2.01585 -9.372339,5.03317 -9.600097,7.77819 -0.100059,1.206 1.393614,2.33644 2.090419,3.50466 2.725155,1.07269 4.949989,2.36428 8.17546,3.21805 8.693222,2.30109 29.38526,5.01233 37.867164,6.02361 6.742715,0.80393 13.690432,1.36364 20.554896,2.0199 34.191581,3.26876 5.1526,0.32398 36.593081,3.57904 4.72814,0.65832 9.55823,1.22563 14.18444,1.97498 5.05488,0.81879 11.1878,2.60312 14.91597,3.92491 4.71365,1.6712 8.2062,3.53056 11.49035,5.61818 1.4042,0.8926 2.56602,1.83848 3.84905,2.75773 3.92269,3.20027 2.11512,1.65987 5.45666,4.61519 l 6.08893,0.90945 v 0 c -3.55505,-2.99195 -1.654,-1.43245 -5.72664,-4.6742 -1.30907,-0.93101 -2.49824,-1.88853 -3.92724,-2.79304 -3.35008,-2.1205 -6.9071,-4.0186 -11.69396,-5.72068 -10.77279,-3.83051 -24.67488,-6.00339 -38.67316,-7.67717 -5.60562,-0.56406 -11.19199,-1.15339 -16.81686,-1.6922 -26.608043,-2.54875 -12.586351,-0.97796 -40.038104,-3.84245 -10.898182,-1.13718 -19.210164,-1.83085 -28.68344,-4.29409 -3.129757,-0.81379 -5.331047,-2.04239 -7.996572,-3.06359 -0.764284,-1.13834 -2.293617,-2.23199 -2.292862,-3.415 0.0017,-2.7277 4.609816,-5.75096 8.72969,-7.82101 3.227667,-1.62178 6.898894,-3.12303 10.764205,-4.53319 13.307596,-4.85493 19.289067,-6.01012 35.010761,-10.0904 7.658542,-1.55813 15.135191,-3.25825 22.975612,-4.67441 24.55668,-4.43548 -59.508822,34.44507 -32.883415,32.6948 2.389923,-0.1571 4.805206,-0.23532 7.207807,-0.35299 z"
       sodipodi:nodetypes="cscssscssscssscccscsscssscssscsscc" />
  </g>
</svg>
